<svg width="44" height="45" viewBox="0 0 44 45" fill="none" xmlns="http://www.w3.org/2000/svg">
<ellipse cx="22" cy="22.5" rx="22" ry="22.5" fill="black"/>
<path d="M15.7 13C14.2094 13 13 14.0078 13 15.25V28.75C13 29.9922 14.2094 31 15.7 31H17.5C18.9906 31 20.2 29.9922 20.2 28.75V15.25C20.2 14.0078 18.9906 13 17.5 13H15.7ZM26.5 13C25.0094 13 23.8 14.0078 23.8 15.25V28.75C23.8 29.9922 25.0094 31 26.5 31H28.3C29.7906 31 31 29.9922 31 28.75V15.25C31 14.0078 29.7906 13 28.3 13H26.5Z" fill="white"/>
</svg>
